# xmcd
#
# Track frame offsets:
#	150
#	14126
#	29847
#	47467
#	60014
#	74374
#	90588
#	103395
#	118675
#	138984
#	159025
#	173425
#
# Disc length: 2485 seconds
#
# Revision: 0
# Processed by: cddbd v1.4PL0 Copyright (c) Steve Scherf et al.
# Submitted via: dBpowerAMP V4.0
#
DISCID=9709b30c
DTITLE=Dzintars Chicha - Nac Un Dziedi
DYEAR=1900
DGENRE=
TTITLE0=Tu esi vasaraa
TTITLE1=Siksparnja Fledermausha shupuljdziesma
TTITLE2=Kuuko Kuuko Dzeguziite
TTITLE3=Naac un dziedi
TTITLE4=Mans sapnju zirgs
TTITLE5=Dziiviite
TTITLE6=Mezroziite
TTITLE7=Tu Naac - Tu Ej
TTITLE8=Meemaa dziesma
TTITLE9=Par To (Raudaaja maate)
TTITLE10=Ziemassveetki
TTITLE11=O Sole Mio
EXTD=Submitted by Dj Grisha. Latvia's new artist!
EXTT0=
EXTT1=
EXTT2=
EXTT3=
EXTT4=
EXTT5=
EXTT6=
EXTT7=
EXTT8=
EXTT9=
EXTT10=
EXTT11=
PLAYORDER=
